<svg width="50" height="50" viewBox="0 0 50 50" fill="none" xmlns="http://www.w3.org/2000/svg">
<g clip-path="url(#clip0_379_15)">
<rect width="1919" height="6121" transform="translate(-945 -3040)" fill="#F9F8FF"/>
<rect x="977" y="1153" width="1922" height="1639" transform="rotate(-180 977 1153)" fill="url(#paint0_linear_379_15)"/>
<mask id="mask0_379_15" style="mask-type:alpha" maskUnits="userSpaceOnUse" x="-945" y="-486" width="1923" height="1639">
<path d="M977.979 1152.01L-944.021 1152.01L-944.021 -485.016L16.9787 -485.016L977.979 -485.016L977.979 1152.01Z" fill="url(#paint1_linear_379_15)"/>
</mask>
<g mask="url(#mask0_379_15)">
<path d="M-246.19 23.3936C-246.19 352.634 20.9565 619.843 350.12 619.843L350.12 23.3936L-246.19 23.3936Z" fill="#6E9CFD"/>
</g>
<g filter="url(#filter0_d_379_15)">
<rect x="-572" y="-79.9995" width="1170" height="323" rx="15" fill="white"/>
</g>
<g filter="url(#filter1_d_379_15)">
<rect x="-0.000244141" width="50" height="50" rx="15" fill="#DAE6FF"/>
</g>
<path fill-rule="evenodd" clip-rule="evenodd" d="M14.4998 23.6699C14.4998 18.8817 18.3381 15 23.0729 15C25.3467 15 27.5273 15.9134 29.1351 17.5394C30.7429 19.1653 31.6461 21.3705 31.6461 23.6699C31.6461 28.4582 27.8078 32.3399 23.0729 32.3399C18.3381 32.3399 14.4998 28.4582 14.4998 23.6699ZM31.5043 30.6543L34.0576 32.7164H34.102C34.6185 33.2388 34.6185 34.0858 34.102 34.6082C33.5854 35.1306 32.7479 35.1306 32.2313 34.6082L30.1124 32.1784C29.9121 31.9766 29.7995 31.7023 29.7995 31.4164C29.7995 31.1304 29.9121 30.8561 30.1124 30.6543C30.4987 30.2704 31.118 30.2704 31.5043 30.6543Z" fill="#6E9CFD"/>
</g>
<defs>
<filter id="filter0_d_379_15" x="-622" y="-110" width="1270" height="423" filterUnits="userSpaceOnUse" color-interpolation-filters="sRGB">
<feFlood flood-opacity="0" result="BackgroundImageFix"/>
<feColorMatrix in="SourceAlpha" type="matrix" values="0 0 0 0 0 0 0 0 0 0 0 0 0 0 0 0 0 0 127 0" result="hardAlpha"/>
<feOffset dy="20"/>
<feGaussianBlur stdDeviation="25"/>
<feColorMatrix type="matrix" values="0 0 0 0 0.231373 0 0 0 0 0.243137 0 0 0 0 0.262745 0 0 0 0.05 0"/>
<feBlend mode="normal" in2="BackgroundImageFix" result="effect1_dropShadow_379_15"/>
<feBlend mode="normal" in="SourceGraphic" in2="effect1_dropShadow_379_15" result="shape"/>
</filter>
<filter id="filter1_d_379_15" x="-20.0002" y="-10" width="90" height="90" filterUnits="userSpaceOnUse" color-interpolation-filters="sRGB">
<feFlood flood-opacity="0" result="BackgroundImageFix"/>
<feColorMatrix in="SourceAlpha" type="matrix" values="0 0 0 0 0 0 0 0 0 0 0 0 0 0 0 0 0 0 127 0" result="hardAlpha"/>
<feOffset dy="10"/>
<feGaussianBlur stdDeviation="10"/>
<feColorMatrix type="matrix" values="0 0 0 0 0.770833 0 0 0 0 0.619075 0 0 0 0 0.56849 0 0 0 0.1 0"/>
<feBlend mode="normal" in2="BackgroundImageFix" result="effect1_dropShadow_379_15"/>
<feBlend mode="normal" in="SourceGraphic" in2="effect1_dropShadow_379_15" result="shape"/>
</filter>
<linearGradient id="paint0_linear_379_15" x1="2899" y1="1113.98" x2="588.599" y2="2111.78" gradientUnits="userSpaceOnUse">
<stop stop-color="#35D3FF"/>
<stop offset="1" stop-color="#A963FB"/>
</linearGradient>
<linearGradient id="paint1_linear_379_15" x1="-944.021" y1="1190.98" x2="1365.5" y2="192.354" gradientUnits="userSpaceOnUse">
<stop stop-color="#35D3FF"/>
<stop offset="1" stop-color="#A963FB"/>
</linearGradient>
<clipPath id="clip0_379_15">
<rect width="1919" height="6121" fill="white" transform="translate(-945 -3040)"/>
</clipPath>
</defs>
</svg>
