<svg width="50" height="50" viewBox="0 0 50 50" fill="none" xmlns="http://www.w3.org/2000/svg">
<g clip-path="url(#clip0_379_15)">
<rect width="1919" height="6121" transform="translate(-945 -3403)" fill="#F9F8FF"/>
<rect x="977" y="790" width="1922" height="1639" transform="rotate(-180 977 790)" fill="url(#paint0_linear_379_15)"/>
<mask id="mask0_379_15" style="mask-type:alpha" maskUnits="userSpaceOnUse" x="-945" y="-849" width="1923" height="1639">
<path d="M977.979 789.006L-944.021 789.006L-944.021 -848.016L16.9787 -848.016L977.979 -848.016L977.979 789.006Z" fill="url(#paint1_linear_379_15)"/>
</mask>
<g mask="url(#mask0_379_15)">
<path d="M-246.19 -339.606C-246.19 -10.3663 20.9565 256.843 350.12 256.843L350.12 -339.606L-246.19 -339.606Z" fill="#6E9CFD"/>
</g>
<line x1="14.991" y1="-122.999" x2="14.9909" y2="585.001" stroke="white" stroke-width="2" stroke-dasharray="3 3"/>
<g filter="url(#filter0_d_379_15)">
<rect x="-569" y="-79.9985" width="1170" height="323" rx="15" fill="white"/>
</g>
<g filter="url(#filter1_d_379_15)">
<rect x="-0.000244141" width="50" height="50" rx="15" fill="#E9E6FF"/>
</g>
<path fill-rule="evenodd" clip-rule="evenodd" d="M25.9436 17.8802H29.012C32.7001 17.8802 34.4991 19.8502 34.4891 23.8902V28.7602C34.4891 32.6202 32.1104 35.0002 28.2424 35.0002H20.7363C16.8883 35.0002 14.4995 32.6202 14.4995 28.7502V21.2402C14.4995 17.1002 16.3386 15.0002 19.9667 15.0002H21.5459C22.4764 14.9902 23.3449 15.4202 23.9146 16.1502L24.7942 17.3202C25.074 17.6702 25.4938 17.8802 25.9436 17.8802ZM19.8668 28.2902H29.122C29.5318 28.2902 29.8616 27.9502 29.8616 27.5402C29.8616 27.1202 29.5318 26.7902 29.122 26.7902H19.8668C19.447 26.7902 19.1172 27.1202 19.1172 27.5402C19.1172 27.9502 19.447 28.2902 19.8668 28.2902Z" fill="#8E7EFC"/>
</g>
<defs>
<filter id="filter0_d_379_15" x="-619" y="-109.999" width="1270" height="423" filterUnits="userSpaceOnUse" color-interpolation-filters="sRGB">
<feFlood flood-opacity="0" result="BackgroundImageFix"/>
<feColorMatrix in="SourceAlpha" type="matrix" values="0 0 0 0 0 0 0 0 0 0 0 0 0 0 0 0 0 0 127 0" result="hardAlpha"/>
<feOffset dy="20"/>
<feGaussianBlur stdDeviation="25"/>
<feColorMatrix type="matrix" values="0 0 0 0 0.231373 0 0 0 0 0.243137 0 0 0 0 0.262745 0 0 0 0.05 0"/>
<feBlend mode="normal" in2="BackgroundImageFix" result="effect1_dropShadow_379_15"/>
<feBlend mode="normal" in="SourceGraphic" in2="effect1_dropShadow_379_15" result="shape"/>
</filter>
<filter id="filter1_d_379_15" x="-20.0002" y="-10" width="90" height="90" filterUnits="userSpaceOnUse" color-interpolation-filters="sRGB">
<feFlood flood-opacity="0" result="BackgroundImageFix"/>
<feColorMatrix in="SourceAlpha" type="matrix" values="0 0 0 0 0 0 0 0 0 0 0 0 0 0 0 0 0 0 127 0" result="hardAlpha"/>
<feOffset dy="10"/>
<feGaussianBlur stdDeviation="10"/>
<feColorMatrix type="matrix" values="0 0 0 0 0.770833 0 0 0 0 0.619075 0 0 0 0 0.56849 0 0 0 0.1 0"/>
<feBlend mode="normal" in2="BackgroundImageFix" result="effect1_dropShadow_379_15"/>
<feBlend mode="normal" in="SourceGraphic" in2="effect1_dropShadow_379_15" result="shape"/>
</filter>
<linearGradient id="paint0_linear_379_15" x1="2899" y1="750.976" x2="588.599" y2="1748.78" gradientUnits="userSpaceOnUse">
<stop stop-color="#35D3FF"/>
<stop offset="1" stop-color="#A963FB"/>
</linearGradient>
<linearGradient id="paint1_linear_379_15" x1="-944.021" y1="827.983" x2="1365.5" y2="-170.646" gradientUnits="userSpaceOnUse">
<stop stop-color="#35D3FF"/>
<stop offset="1" stop-color="#A963FB"/>
</linearGradient>
<clipPath id="clip0_379_15">
<rect width="1919" height="6121" fill="white" transform="translate(-945 -3403)"/>
</clipPath>
</defs>
</svg>
