<svg width="50" height="50" viewBox="0 0 50 50" fill="none" xmlns="http://www.w3.org/2000/svg">
<g clip-path="url(#clip0_379_15)">
<rect width="1919" height="6121" transform="translate(-1215 -1732)" fill="#F9F8FF"/>
<path opacity="0.2" d="M-35.6152 -241C-35.6152 179.072 305.135 520 724.988 520L724.988 -241L-35.6152 -241Z" fill="#8281FF"/>
<g filter="url(#filter0_d_379_15)">
<rect x="-46" y="-53" width="370" height="335" rx="15" fill="white"/>
</g>
<g filter="url(#filter1_d_379_15)">
<rect width="50" height="50" rx="15" fill="#FAF3D8"/>
</g>
<path fill-rule="evenodd" clip-rule="evenodd" d="M29.2028 20.6048C29.2028 23.3461 27.0186 25.5442 24.2945 25.5442C21.5705 25.5442 19.3863 23.3461 19.3863 20.6048C19.3863 17.8625 21.5705 15.6665 24.2945 15.6665C27.0186 15.6665 29.2028 17.8625 29.2028 20.6048ZM24.2945 34.3332C20.2935 34.3332 16.8773 33.6985 16.8773 31.16C16.8773 28.6205 20.2716 27.9627 24.2945 27.9627C28.2954 27.9627 31.7117 28.5973 31.7117 31.1369C31.7117 33.6754 28.3174 34.3332 24.2945 34.3332ZM31.3003 20.694C31.3003 22.0914 30.8837 23.3932 30.1528 24.4755C30.0777 24.5868 30.1445 24.7371 30.2771 24.7602C30.4598 24.7917 30.6488 24.8096 30.8409 24.8148C32.7568 24.8653 34.4764 23.6244 34.9515 21.7562C35.6552 18.9813 33.5889 16.4901 30.9578 16.4901C30.6718 16.4901 30.3982 16.5205 30.132 16.5752C30.0954 16.5836 30.0568 16.6004 30.0359 16.633C30.0108 16.6729 30.0296 16.7265 30.0547 16.7612C30.8451 17.876 31.3003 19.2356 31.3003 20.694ZM34.4733 26.7645C35.7606 27.0177 36.6074 27.5347 36.9582 28.2859C37.2547 28.9027 37.2547 29.6182 36.9582 30.2339C36.4216 31.3992 34.6915 31.7732 34.0191 31.8699C33.8802 31.8909 33.7685 31.7701 33.7831 31.6303C34.1266 28.4015 31.3943 26.8706 30.6874 26.5186C30.6571 26.5029 30.6509 26.4787 30.654 26.464C30.6561 26.4535 30.6686 26.4367 30.6916 26.4335C32.2212 26.4051 33.8656 26.6153 34.4733 26.7645ZM17.8673 24.8147C18.0594 24.8094 18.2474 24.7926 18.4311 24.76C18.5637 24.7369 18.6306 24.5867 18.5554 24.4753C17.8245 23.3931 17.4079 22.0912 17.4079 20.6938C17.4079 19.2354 17.8632 17.8758 18.6535 16.761C18.6786 16.7263 18.6963 16.6727 18.6723 16.6328C18.6514 16.6013 18.6118 16.5834 18.5763 16.575C18.309 16.5204 18.0354 16.4899 17.7494 16.4899C15.1182 16.4899 13.052 18.9811 13.7568 21.7561C14.2318 23.6242 15.9514 24.8651 17.8673 24.8147ZM18.0537 26.4634C18.0568 26.4791 18.0506 26.5023 18.0213 26.5191C17.3134 26.871 14.581 28.4019 14.9246 31.6297C14.9392 31.7705 14.8285 31.8903 14.6896 31.8703C14.0172 31.7737 12.2872 31.3996 11.7505 30.2344C11.453 29.6176 11.453 28.9031 11.7505 28.2864C12.1013 27.5351 12.947 27.0181 14.2344 26.7639C14.8431 26.6157 16.4865 26.4056 18.0171 26.434C18.0401 26.4371 18.0516 26.4539 18.0537 26.4634Z" fill="#FFCF00"/>
</g>
<defs>
<filter id="filter0_d_379_15" x="-96" y="-83" width="470" height="435" filterUnits="userSpaceOnUse" color-interpolation-filters="sRGB">
<feFlood flood-opacity="0" result="BackgroundImageFix"/>
<feColorMatrix in="SourceAlpha" type="matrix" values="0 0 0 0 0 0 0 0 0 0 0 0 0 0 0 0 0 0 127 0" result="hardAlpha"/>
<feOffset dy="20"/>
<feGaussianBlur stdDeviation="25"/>
<feColorMatrix type="matrix" values="0 0 0 0 0.231373 0 0 0 0 0.243137 0 0 0 0 0.262745 0 0 0 0.05 0"/>
<feBlend mode="normal" in2="BackgroundImageFix" result="effect1_dropShadow_379_15"/>
<feBlend mode="normal" in="SourceGraphic" in2="effect1_dropShadow_379_15" result="shape"/>
</filter>
<filter id="filter1_d_379_15" x="-20" y="-10" width="90" height="90" filterUnits="userSpaceOnUse" color-interpolation-filters="sRGB">
<feFlood flood-opacity="0" result="BackgroundImageFix"/>
<feColorMatrix in="SourceAlpha" type="matrix" values="0 0 0 0 0 0 0 0 0 0 0 0 0 0 0 0 0 0 127 0" result="hardAlpha"/>
<feOffset dy="10"/>
<feGaussianBlur stdDeviation="10"/>
<feColorMatrix type="matrix" values="0 0 0 0 0.745833 0 0 0 0 0.649564 0 0 0 0 0.450608 0 0 0 0.05 0"/>
<feBlend mode="normal" in2="BackgroundImageFix" result="effect1_dropShadow_379_15"/>
<feBlend mode="normal" in="SourceGraphic" in2="effect1_dropShadow_379_15" result="shape"/>
</filter>
<clipPath id="clip0_379_15">
<rect width="1919" height="6121" fill="white" transform="translate(-1215 -1732)"/>
</clipPath>
</defs>
</svg>
